<svg xmlns="http://www.w3.org/2000/svg" width="820" height="820" viewBox="0 0 820 820" version="1.1"><path d="" stroke="none" fill="#0484fc" fill-rule="evenodd"/><path d="M 118.575 165.209 C 116.172 166.611, 113.748 169.209, 112.325 171.907 L 110 176.315 110 317.207 C 110 469.278, 109.699 460.611, 115.155 465.678 C 118.820 469.081, 172.083 499.222, 176 500.110 C 184.818 502.107, 193.971 496.026, 195.936 486.863 C 196.638 483.592, 197 454.806, 197 402.352 C 197 331.027, 197.168 322.449, 198.623 319.381 C 201.019 314.333, 205.378 311.666, 211.935 311.237 L 217.500 310.873 267.947 339.928 C 295.692 355.908, 319.845 369.255, 321.618 369.588 C 323.392 369.921, 326.163 369.903, 327.776 369.549 C 329.388 369.195, 353.386 355.846, 381.104 339.884 L 431.500 310.863 436.791 311.267 C 442.681 311.717, 446.249 313.846, 449.760 319.004 L 452.020 322.325 451.760 368.335 L 451.500 414.344 387.739 450.922 L 323.979 487.500 324.239 534.574 L 324.500 581.648 327.122 585.574 C 329.427 589.026, 339.447 595.047, 410.122 635.445 C 489.305 680.708, 490.582 681.391, 496 681.394 C 501.443 681.398, 502.538 680.803, 601.500 624.031 C 656.500 592.479, 702.778 565.502, 704.339 564.082 C 710.316 558.647, 710 564.238, 710 464.010 C 710 374.378, 709.947 371.817, 708.031 368.061 C 705.296 362.700, 699.907 359.571, 693.410 359.571 C 688.573 359.571, 686.499 360.575, 660.411 375.536 C 645.100 384.316, 631.258 392.604, 629.650 393.953 C 623.981 398.713, 624 398.509, 623.994 453.218 C 623.991 483.132, 623.590 504.936, 623.004 507.044 C 622.463 508.994, 620.553 511.978, 618.760 513.677 C 615.352 516.906, 510.025 577.838, 501.738 581.375 C 497.782 583.063, 496.322 583.232, 493.109 582.375 C 488.227 581.071, 435.649 551.363, 432.274 548 C 429.017 544.755, 428 541.940, 428 536.167 C 428 527.312, 428.469 526.953, 475.117 500.131 C 535.666 465.316, 534.088 466.317, 536.750 461.038 L 539 456.576 539 316.604 L 539 176.631 536.904 172.302 C 533.890 166.075, 527.702 162.603, 520.707 163.214 C 516.003 163.625, 506.522 168.825, 422.500 217.084 C 333.650 268.116, 329.277 270.500, 324.500 270.500 C 319.723 270.500, 315.351 268.117, 226.500 217.081 C 138.936 166.785, 133.179 163.641, 128 163.290 C 123.624 162.993, 121.698 163.385, 118.575 165.209 M 689.427 163.940 C 685.531 164.872, 634.403 195.489, 630.844 199.022 C 629.384 200.471, 627.699 203.422, 627.100 205.579 C 625.662 210.759, 625.626 271.112, 627.058 276.269 C 629.202 283.989, 637.940 289.380, 646.333 288.160 C 649.342 287.723, 700.872 257.349, 704.845 253.671 C 709.953 248.942, 710 248.556, 710 211 C 710 172.945, 710.029 173.167, 704.339 167.843 C 702.005 165.658, 694.979 162.725, 693 163.108 C 692.725 163.161, 691.117 163.536, 689.427 163.940" stroke="none" fill="#047cfc" fill-rule="evenodd"/></svg>